<svg width="238" height="70" viewBox="0 0 238 70" fill="none" xmlns="http://www.w3.org/2000/svg">
<path d="M90.4853 16.9393C95.5896 17.7463 100.193 18.9757 100.193 23.7056C100.193 28.4354 95.0884 30.2185 90.1233 30.2185C86.8473 30.2185 82.6989 29.0548 81.1676 26.5398C81.0175 26.2548 80.9427 25.9356 80.9503 25.6129C80.9579 25.2902 81.0477 24.9749 81.2109 24.6975C81.3742 24.4201 81.6055 24.19 81.8824 24.0294C82.1593 23.8688 82.4725 23.7831 82.7917 23.7807H85.8821C85.8821 27.4501 88.2579 28.6513 90.1604 28.6513C92.063 28.6513 94.5873 27.4501 94.5873 23.7807C94.5873 22.2134 92.462 21.6691 89.7985 21.2656C84.6571 20.4679 80.5179 18.91 80.5179 14.6963C80.5179 10.2574 86.0863 8.51186 90.012 8.37109C92.9261 8.37109 97.5663 9.60048 99.0048 12.8382C99.0983 13.1179 99.1252 13.4161 99.0833 13.7083C99.0414 14.0006 98.9319 14.2787 98.7637 14.5201C98.5955 14.7615 98.3734 14.9594 98.1153 15.0976C97.8573 15.2359 97.5706 15.3106 97.2786 15.3157H94.0119C94.0119 11.1677 91.4876 9.92894 90.0862 9.92894C88.4714 9.92894 86.0956 11.1677 86.0956 14.6213C86.0956 16.151 88.5085 16.6953 90.4481 16.9862L90.4853 16.9393Z" fill="white"/>
<path d="M118.123 29.6743C119.126 28.0299 119.602 26.1126 119.487 24.1843V19.0133C119.487 13.5984 118.912 9.91961 115.459 9.91961C111.07 9.91961 109.705 13.5984 109.705 19.0133V24.1843C109.662 25.7402 109.944 27.2879 110.531 28.7264V28.8015C110.698 29.1294 110.891 29.4432 111.107 29.74L111.181 29.8057H102.541L102.689 29.6273C103.692 27.983 104.169 26.0657 104.054 24.1373V6.61622C104.054 2.64652 102.541 0.985437 102.541 0.985437H105.102C105.707 0.981711 106.307 1.09926 106.866 1.33127C107.426 1.56329 107.934 1.90517 108.362 2.33716C108.79 2.76914 109.129 3.28266 109.36 3.848C109.59 4.41334 109.708 5.0193 109.705 5.63083V11.5995C110.958 9.77884 112.434 8.36176 115.422 8.36176C122.726 8.36176 125.065 13.2699 125.065 19.3042V24.1843C125.021 25.7402 125.303 27.2879 125.891 28.7264V28.8015C126.057 29.1294 126.25 29.4432 126.466 29.74L126.531 29.815H117.9L118.049 29.6273L118.123 29.6743Z" fill="white"/>
<path d="M142.512 27.933C147.979 27.933 151.719 22.7339 151.719 22.7339C150.243 26.6191 145.891 29.8944 140.582 29.8944C133.455 29.8944 129 24.9111 129 18.8768C129 12.8425 133.455 8 140.582 8C146.225 8 150.652 11.0219 151.904 15.9676C152.034 16.4501 152.051 16.9564 151.954 17.4466C151.856 17.9369 151.648 18.3976 151.345 18.7925C151.042 19.1874 150.652 19.5056 150.206 19.7222C149.761 19.9388 149.271 20.0477 148.777 20.0405H134.921C135.747 23.9633 138.123 27.933 142.55 27.933H142.512ZM138.661 9.82062C134.949 10.8342 134.346 14.8789 134.596 18.4076H145.241C145.423 18.3952 145.601 18.3449 145.763 18.2599C145.926 18.1748 146.069 18.0567 146.184 17.9131C146.299 17.7695 146.383 17.6034 146.432 17.4253C146.48 17.2472 146.492 17.0608 146.466 16.8779C145.816 12.7299 142.912 8.65693 138.698 9.82062H138.661Z" fill="white"/>
<path d="M178.103 61.2069C179.111 59.5609 179.591 57.64 179.477 55.7075V49.6356C179.477 44.2582 178.549 41.5273 176.275 41.5273C172.563 41.5273 171.161 44.033 171.059 49.1288V55.6981C171.015 57.2571 171.296 58.808 171.885 60.2496V60.3247C172.048 60.6547 172.241 60.9689 172.46 61.2632L172.525 61.3383H163.978L164.127 61.16C165.129 59.5156 165.606 57.5983 165.491 55.6699V49.5324C165.491 44.1456 164.516 41.4147 162.289 41.4147C158.475 41.4147 157.036 44.1456 157.036 49.5324V55.6418C156.998 57.1973 157.279 58.7439 157.862 60.1839V60.259C158.033 60.5847 158.225 60.8983 158.438 61.1975L158.512 61.2632H149.881L150.02 61.0849C150.419 60.5406 151.394 58.8326 151.394 55.5949V45.8818C151.411 44.4441 151.166 43.0155 150.67 41.6681C150.485 41.1787 150.246 40.7126 149.955 40.2791C151.399 40.9377 152.962 41.2876 154.547 41.307C156.131 41.3264 157.702 41.0148 159.161 40.3917C160.318 39.9953 161.532 39.7986 162.753 39.8099C164.083 39.7575 165.399 40.1013 166.537 40.7987C167.676 41.4961 168.587 42.5163 169.157 43.7327C169.907 42.5363 170.943 41.5499 172.169 40.8644C173.395 40.1789 174.772 39.8163 176.173 39.8099C182.465 39.8099 185.128 44.7181 185.128 50.7618V55.6324C185.085 57.1883 185.366 58.736 185.954 60.1746V60.2496C186.121 60.5775 186.314 60.8913 186.53 61.1881L186.604 61.2632H177.973L178.112 61.0755L178.103 61.2069Z" fill="white"/>
<path d="M137.302 48.3964C142.415 49.2035 147.019 50.4329 147.019 55.1627C147.019 59.8926 141.905 61.6757 136.94 61.6757C133.673 61.6757 129.515 60.512 127.984 58.0063C127.82 57.7197 127.735 57.3945 127.735 57.0636C127.736 56.7327 127.823 56.4078 127.988 56.122C128.153 55.8362 128.39 55.5995 128.674 55.436C128.959 55.2725 129.281 55.1879 129.608 55.1909H132.662C132.662 58.8603 135.037 60.0615 136.94 60.0615C138.842 60.0615 141.367 58.8603 141.367 55.1909C141.367 53.6236 139.241 53.0793 136.587 52.6852C131.436 51.8781 127.307 50.3202 127.307 46.0596C127.307 41.6301 132.875 39.8751 136.801 39.7344C139.715 39.7344 144.355 40.9731 145.794 44.2108C145.885 44.4901 145.911 44.7872 145.868 45.0782C145.825 45.3692 145.715 45.646 145.547 45.8862C145.379 46.1264 145.158 46.3233 144.901 46.461C144.644 46.5987 144.358 46.6734 144.067 46.679H140.791C140.791 42.531 138.276 41.2922 136.866 41.2922C135.251 41.2922 132.875 42.531 132.875 45.9845C132.875 47.5142 135.288 48.0585 137.228 48.3495L137.302 48.3964Z" fill="white"/>
<path d="M26.5512 39.517L16.4399 49.6312L18.3807 51.557L28.5547 41.3801C29.5019 41.9975 30.5685 42.4083 31.6851 42.5857V62H34.4086V42.5857C35.5684 42.3868 36.6727 41.9439 37.6486 41.2862L47.6503 51.2908L49.5912 49.365L39.6051 39.3761C40.3582 38.353 40.862 37.1682 41.0764 35.9159H59.9999V33.1917H41.0294C40.8521 32.0748 40.4415 31.0078 39.8242 30.0603L49.2155 20.6663L47.2903 18.7405L37.899 28.1345C36.848 27.321 35.6106 26.7829 34.299 26.5689V8H31.6381V26.5219C30.3863 26.7363 29.2017 27.2403 28.179 27.9936L18.6468 18.4587L16.706 20.3688L26.2694 29.9351C25.6054 30.9077 25.162 32.0139 24.9703 33.176H5.99988V35.9003H24.9703C25.1864 37.2192 25.7299 38.4627 26.5512 39.517ZM32.9999 29.1209C34.072 29.1302 35.1175 29.4567 36.0044 30.0593C36.8914 30.6618 37.5802 31.5135 37.9841 32.5071C38.388 33.5006 38.4889 34.5914 38.2741 35.6422C38.0592 36.693 37.5383 37.6566 36.7769 38.4117C36.0155 39.1668 35.0476 39.6796 33.9954 39.8855C32.9431 40.0913 31.8535 39.981 30.8638 39.5685C29.874 39.1559 29.0285 38.4596 28.4338 37.5672C27.8391 36.6748 27.5217 35.6263 27.5216 34.5538C27.5216 33.8364 27.6636 33.126 27.9395 32.4638C28.2154 31.8016 28.6196 31.2006 29.129 30.6955C29.6383 30.1903 30.2426 29.7911 30.907 29.5209C31.5714 29.2507 32.2827 29.1147 32.9999 29.1209Z" fill="#FADCD9" stroke="#FADCD9" stroke-miterlimit="10"/>
<path d="M209.691 56.3296C209.63 58.1498 210.162 59.9399 211.204 61.4254H207.352C205.84 61.4254 204.113 60.1866 204.113 58.6569C202.823 60.4776 201.329 61.8946 198.359 61.8946C191.065 61.8946 187 56.9865 187 50.9428C187 44.8991 191.065 40.0003 198.359 40.0003C199.595 39.9915 200.824 40.188 201.997 40.5821C203.47 41.2112 205.055 41.5228 206.653 41.4969C208.251 41.4711 209.826 41.1083 211.278 40.432C210.195 42.0987 209.665 44.071 209.765 46.0628L209.691 56.3296ZM198.322 60.2242C202.712 60.2242 204.076 54.4057 204.076 50.9052C204.076 45.5278 202.712 41.5675 198.322 41.5675C194.87 41.5675 192.568 45.5278 192.568 50.9522C192.568 56.3765 194.87 60.3368 198.322 60.3368V60.2242Z" fill="white"/>
</svg>
