<svg width="60" height="60" viewBox="0 0 60 60" fill="none" xmlns="http://www.w3.org/2000/svg">
<circle cx="30" cy="30" r="30" fill="#FAF5F2"/>
<path d="M46.7506 36.2594L40.9019 32.3971C40.5826 32.1861 40.1503 32.2746 39.939 32.5973C39.7281 32.9196 39.8176 33.3531 40.1382 33.5645L44.9729 36.7572L24.6985 43.9928L10.238 34.3785L18.5047 31.3554C18.8652 31.2236 19.052 30.8226 18.9199 30.4599C18.7887 30.0976 18.3893 29.9099 18.0292 30.0426L8.4553 33.544C8.1059 33.6716 7.92239 34.0521 8.03129 34.4055V38.5565C8.03129 38.638 8.04797 38.7149 8.07346 38.7875C8.07809 39.0087 8.18653 39.2238 8.38394 39.3552L24.2203 49.884C24.3385 49.9623 24.4719 50 24.6035 50C24.7412 50 24.8742 49.9544 24.99 49.8766L46.8038 42.0919C47.0606 42.0002 47.2279 41.7715 47.2584 41.5168C47.2969 41.4302 47.3191 41.3347 47.3191 41.2337V36.9453C47.3187 36.603 47.0735 36.3194 46.7506 36.2594ZM9.4215 35.511L23.9089 45.143V48.0018L9.4215 38.3698V35.511ZM25.2991 45.2608L45.9289 37.8985V40.9212L25.2991 48.2835V45.2608Z" fill="#F79489"/>
<path d="M52.0001 21.4509C52.0001 21.1023 51.7554 20.8131 51.4324 20.7519L35.7541 10.1155C35.7416 10.1069 35.7277 10.1022 35.7152 10.0946C35.6938 10.0822 35.673 10.0699 35.6503 10.0599C35.629 10.0504 35.6077 10.0428 35.5863 10.0357C35.5655 10.0286 35.5451 10.0219 35.5238 10.0172C35.5006 10.012 35.4774 10.0086 35.4538 10.0058C35.433 10.0034 35.4121 10.0006 35.3908 10.0001C35.3667 9.99962 35.3431 10.001 35.319 10.0029C35.2981 10.0044 35.2773 10.0063 35.2559 10.0096C35.2314 10.0139 35.2073 10.0205 35.1832 10.0276C35.1688 10.0319 35.1545 10.0333 35.1401 10.0381L13.1439 17.9732C12.7885 18.1014 12.6004 18.4956 12.7139 18.8608V23.0884C12.7139 23.1691 12.7297 23.2456 12.7542 23.3177C12.7575 23.5452 12.8664 23.7675 13.0652 23.9023L28.8982 34.6437C29.0164 34.7234 29.1494 34.7619 29.2815 34.7619C29.4196 34.7619 29.553 34.7154 29.6689 34.6351L51.4824 26.7005C51.7382 26.6074 51.9046 26.3761 51.9366 26.1178C51.9764 26.028 52.0001 25.9287 52.0001 25.8238V21.4509ZM35.2754 11.4994L49.6586 21.2571L29.3765 28.6343L14.9349 18.8371L35.2754 11.4994ZM14.1041 19.982L28.5868 29.8073V32.7232L14.1041 22.8979V19.982ZM29.977 29.9274L50.6099 22.4226V25.5051L29.977 33.0105V29.9274Z" fill="#F79489"/>
</svg>
