<svg width="60" height="60" viewBox="0 0 60 60" fill="none" xmlns="http://www.w3.org/2000/svg">
<circle cx="30" cy="30" r="30" fill="#FAF5F2"/>
<path d="M35.9788 24.7497L28.1052 33.7179L24.1096 29.6555C23.8363 29.3775 23.3936 29.3775 23.1203 29.6555C22.8469 29.9334 22.8469 30.3835 23.1203 30.6615L27.6392 35.2566C27.7703 35.3903 27.9485 35.4648 28.1341 35.4648C28.1407 35.4648 28.1472 35.4648 28.1537 35.4643C28.3464 35.4586 28.5278 35.3732 28.6561 35.2271L37.0232 25.6974C37.2807 25.4043 37.2555 24.9546 36.9672 24.6928C36.678 24.4315 36.2368 24.4571 35.9788 24.7497Z" fill="#F79489"/>
<path d="M49.9777 29.9988C49.991 29.9451 50 29.8896 50 29.8317C50 27.9493 48.0309 26.9766 46.2931 26.1178C45.0596 25.5086 43.7847 24.8781 43.4452 24.0838C43.0996 23.2731 43.5877 21.9519 44.0587 20.6736C44.7158 18.8925 45.3948 17.0511 44.1418 15.8095C42.9129 14.591 41.1163 15.0035 39.378 15.4041C38.1615 15.6838 36.9028 15.9724 36.0648 15.6212C35.2467 15.278 34.5667 14.2139 33.9091 13.1837C32.9552 11.6917 31.875 10 30 10C28.1216 10 27.0619 11.7284 26.1274 13.2539C25.4788 14.3128 24.8079 15.407 23.9908 15.7497C23.1556 16.1005 21.8836 15.7827 20.6538 15.4762C18.9018 15.0402 17.0904 14.5873 15.8587 15.81C14.6142 17.0436 15.2172 18.8944 15.8012 20.6849C16.2181 21.9623 16.6488 23.2834 16.3003 24.1013C15.9603 24.8988 14.7419 25.5236 13.563 26.1282C11.8931 26.9841 10 27.9545 10 29.8326C10 29.891 10.0095 29.947 10.0228 30.0012C10.0095 30.0549 10.0005 30.1104 10.0005 30.1683C10.0005 32.0464 11.8935 33.0168 13.5639 33.8728C14.7419 34.4769 15.9608 35.1016 16.3007 35.8992C16.6493 36.717 16.2186 38.0382 15.8017 39.316C15.2182 41.1061 14.6147 42.9564 15.8587 44.1905C17.0913 45.4132 18.9027 44.9617 20.6543 44.5243C21.8845 44.2183 23.157 43.9014 23.9917 44.2517C24.8084 44.594 25.4793 45.6882 26.1279 46.7466C27.0628 48.2716 28.1221 50 30.0005 50C31.8755 50 32.9562 48.3083 33.9096 46.8163C34.5677 45.7861 35.2476 44.722 36.0643 44.3788C36.9056 44.0266 38.162 44.3157 39.378 44.5959C41.1153 44.9956 42.9129 45.4099 44.1408 44.1909C45.3953 42.9489 44.7158 41.107 44.0587 39.3264C43.5872 38.0481 43.0996 36.7269 43.4447 35.9171C43.7847 35.1224 45.0596 34.4919 46.2931 33.8827C48.0305 33.0244 50 32.0512 50 30.1688C50.0005 30.109 49.991 30.053 49.9777 29.9988ZM45.6583 32.6166C44.1935 33.3403 42.6789 34.0889 42.1333 35.3653C41.5697 36.6883 42.1552 38.2755 42.7211 39.8099C43.2472 41.237 43.7448 42.5859 43.1337 43.1904C42.4647 43.8552 41.121 43.5459 39.6999 43.2192C38.2622 42.8886 36.7755 42.5463 35.5097 43.077C34.2823 43.5921 33.4813 44.8463 32.7064 46.0592C31.876 47.3587 31.0916 48.5861 30.0005 48.5861C28.9231 48.5861 28.1568 47.3356 27.3448 46.0116C26.579 44.7616 25.7865 43.4687 24.5463 42.9494C23.2714 42.4136 21.7649 42.7893 20.3062 43.1532C18.8771 43.5087 17.5272 43.8468 16.8658 43.1904C16.2376 42.568 16.6839 41.1988 17.1564 39.7492C17.6535 38.226 18.1667 36.6507 17.6122 35.3479C17.0718 34.0804 15.6208 33.3365 14.2177 32.6166C12.7814 31.8807 11.4244 31.1853 11.4244 30.1669C11.4244 30.1085 11.4149 30.0525 11.4016 29.9979C11.4149 29.9442 11.424 29.8887 11.424 29.8307C11.424 28.8123 12.7805 28.1169 14.2168 27.381C15.6203 26.6616 17.0718 25.9177 17.6117 24.6493C18.1663 23.347 17.653 21.7721 17.1559 20.2485C16.6834 18.7988 16.2366 17.4296 16.8658 16.8067C17.5258 16.1509 18.8756 16.488 20.3058 16.8444C21.7634 17.2074 23.27 17.5845 24.5454 17.0487C25.7856 16.529 26.578 15.2361 27.3448 13.986C28.1563 12.6616 28.9226 11.4111 30 11.4111C31.0911 11.4111 31.8755 12.6385 32.7055 13.9385C33.4808 15.1513 34.2818 16.4056 35.5097 16.9211C36.7755 17.4518 38.2622 17.1095 39.6999 16.7785C41.121 16.4517 42.4643 16.1424 43.1342 16.8077C43.7443 17.4117 43.2467 18.7602 42.7207 20.1877C42.1547 21.7226 41.5692 23.3098 42.1333 24.6333C42.6779 25.9092 44.193 26.6578 45.6578 27.3815C47.1582 28.1226 48.5755 28.8232 48.5755 29.8307C48.5755 29.8891 48.585 29.9451 48.5983 29.9993C48.585 30.053 48.576 30.1085 48.576 30.1664C48.576 31.1754 47.1587 31.8755 45.6583 32.6166Z" fill="#F79489"/>
</svg>
