<svg width="60" height="60" viewBox="0 0 60 60" fill="none" xmlns="http://www.w3.org/2000/svg">
<circle cx="30" cy="30" r="30" fill="#FAF5F2"/>
<path d="M44.8109 31.9041L35.3909 30.5134L31.1786 21.8408C31.0744 21.6256 30.8588 21.4894 30.6222 21.4894C30.3855 21.4894 30.1699 21.6256 30.0657 21.8408L25.8538 30.5134L16.4338 31.9041C16.2005 31.9386 16.006 32.105 15.9328 32.3333C15.8596 32.5616 15.9208 32.8126 16.09 32.9799L22.9055 39.7304L21.2969 49.2626C21.2568 49.4993 21.3528 49.7385 21.5439 49.8798C21.7355 50.0206 21.9887 50.0391 22.1976 49.9277L30.6217 45.4268L39.0471 49.9277C39.1381 49.9761 39.237 50 39.3359 50C39.4646 50 39.5924 49.9592 39.7008 49.8798C39.8919 49.7385 39.9875 49.4993 39.9478 49.2626L38.3375 39.7304L45.1539 32.9799C45.3231 32.8126 45.3839 32.5616 45.3111 32.3333C45.2387 32.105 45.0442 31.9386 44.8109 31.9041ZM37.2386 39.0585C37.0922 39.2036 37.0256 39.4121 37.0599 39.6168L38.5125 48.2162L30.9114 44.156C30.7301 44.0597 30.5146 44.0597 30.3338 44.156L22.7338 48.2162L24.1848 39.6168C24.2191 39.4121 24.1525 39.2036 24.0061 39.0585L17.8579 32.969L26.3561 31.7145C26.558 31.6846 26.733 31.5556 26.8232 31.3697L30.623 23.546L34.4232 31.3697C34.5134 31.5556 34.6884 31.6846 34.8903 31.7145L43.3884 32.969L37.2386 39.0585Z" fill="#F79489"/>
<path d="M19.8664 24.8936C20.0907 24.8936 20.3058 24.7623 20.4072 24.5385C20.5468 24.2307 20.4175 23.8641 20.1189 23.72L13.8491 20.6959C13.5513 20.5527 13.1958 20.6857 13.0562 20.9935C12.9167 21.3014 13.0459 21.668 13.3445 21.8121L19.6143 24.8362C19.6958 24.8752 19.7817 24.8936 19.8664 24.8936Z" fill="#F79489"/>
<path d="M46.9437 20.9935C46.8038 20.6857 46.4483 20.5527 46.1508 20.6959L39.881 23.72C39.5823 23.8645 39.4535 24.2307 39.5927 24.5385C39.6941 24.7623 39.9092 24.8936 40.1335 24.8936C40.2182 24.8936 40.3041 24.8752 40.3856 24.8357L46.6554 21.8116C46.9545 21.668 47.0833 21.3014 46.9437 20.9935Z" fill="#F79489"/>
<path d="M30.6219 18.5106C30.9653 18.5106 31.2439 18.2296 31.2439 17.8834V10.6272C31.2439 10.2806 30.9653 10 30.6219 10C30.2786 10 30 10.2806 30 10.6272V17.8834C30 18.2296 30.2786 18.5106 30.6219 18.5106Z" fill="#F79489"/>
</svg>
