<svg width="60" height="60" viewBox="0 0 60 60" fill="none" xmlns="http://www.w3.org/2000/svg">
<circle cx="30" cy="30" r="30" fill="#FAF5F2"/>
<path d="M47.4741 13.5503H43.1585V12.7803C43.1585 11.2471 41.9192 10 40.3964 10C38.8688 10 37.6263 11.2476 37.6263 12.7803V13.5503H32.8931V12.7803C32.8931 11.2471 31.6522 10 30.1273 10C28.6002 10 27.3577 11.2476 27.3577 12.7803V13.5503H22.6245V12.7803C22.6245 11.2471 21.3836 10 19.8587 10C18.3332 10 17.0923 11.2476 17.0923 12.7803V13.5503H12.792C12.3543 13.5503 12 13.9069 12 14.3463V49.204C12 49.6434 12.3543 50 12.792 50H47.4746C47.9124 50 48.2667 49.6434 48.2667 49.204V14.3463C48.2661 13.9069 47.9118 13.5503 47.4741 13.5503ZM39.2099 12.7803C39.2099 12.1254 39.7422 11.5921 40.3959 11.5921C41.0453 11.5921 41.5739 12.1254 41.5739 12.7803V16.4898C41.5739 17.1452 41.0453 17.6785 40.3959 17.6785C39.7422 17.6785 39.2099 17.1452 39.2099 16.4898V12.7803ZM28.9418 12.7803C28.9418 12.1254 29.4736 11.5921 30.1273 11.5921C30.7788 11.5921 31.309 12.1254 31.309 12.7803V16.4898C31.309 17.1452 30.7788 17.6785 30.1273 17.6785C29.4736 17.6785 28.9418 17.1452 28.9418 16.4898V12.7803ZM18.6764 12.7803C18.6764 12.1254 19.2065 11.5921 19.8587 11.5921C20.5103 11.5921 21.0404 12.1254 21.0404 12.7803V16.4898C21.0404 17.1452 20.5103 17.6785 19.8587 17.6785C19.2071 17.6785 18.6764 17.1452 18.6764 16.4898V12.7803ZM46.6821 48.4074H13.5836V15.1418H17.0918V16.4892C17.0918 18.0229 18.3327 19.27 19.8581 19.27C21.3831 19.27 22.624 18.0224 22.624 16.4892V15.1418H27.3572V16.4892C27.3572 18.0229 28.5997 19.27 30.1267 19.27C31.6517 19.27 32.8926 18.0224 32.8926 16.4892V15.1418H37.6258V16.4892C37.6258 18.0229 38.8688 19.27 40.3959 19.27C41.9192 19.27 43.158 18.0224 43.158 16.4892V15.1418H46.6815V48.4074H46.6821Z" fill="#F79489"/>
<path d="M37.8311 26.2658L29.0127 36.3102L24.5376 31.7603C24.2315 31.449 23.7357 31.449 23.4296 31.7603C23.1234 32.0716 23.1234 32.5757 23.4296 32.887L28.4908 38.0335C28.6376 38.1833 28.8371 38.2667 29.0451 38.2667C29.0524 38.2667 29.0597 38.2667 29.067 38.2661C29.2828 38.2598 29.486 38.1641 29.6296 38.0005L39.0008 27.3272C39.2892 26.9989 39.261 26.4953 38.9381 26.2021C38.6142 25.9094 38.12 25.9381 37.8311 26.2658Z" fill="#F79489"/>
</svg>
