<svg width="119" height="35" viewBox="0 0 119 35" fill="none" xmlns="http://www.w3.org/2000/svg">
<g clip-path="url(#clip0_39_214)">
<path d="M45.2427 8.46963C47.7948 8.87317 50.0964 9.48787 50.0964 11.8528C50.0964 14.2177 47.5443 15.1093 45.0617 15.1093C43.4237 15.1093 41.3495 14.5274 40.5839 13.2699C40.5088 13.1274 40.4714 12.9678 40.4752 12.8064C40.479 12.6451 40.5239 12.4875 40.6055 12.3488C40.6872 12.2101 40.8028 12.095 40.9413 12.0147C41.0797 11.9344 41.2363 11.8916 41.3959 11.8903H42.9411C42.9411 13.725 44.129 14.3256 45.0803 14.3256C46.0315 14.3256 47.2937 13.725 47.2937 11.8903C47.2937 11.1067 46.2311 10.8346 44.8993 10.6328C42.3286 10.2339 40.259 9.45502 40.259 7.34817C40.259 5.1287 43.0432 4.25593 45.006 4.18555C46.4631 4.18555 48.7832 4.80024 49.5025 6.41909C49.5492 6.55897 49.5627 6.70803 49.5417 6.85416C49.5208 7.00028 49.466 7.13935 49.3819 7.26005C49.2978 7.38076 49.1868 7.47969 49.0577 7.54881C48.9287 7.61794 48.7854 7.6553 48.6394 7.65786H47.006C47.006 5.58386 45.7438 4.96447 45.0432 4.96447C44.2358 4.96447 43.0478 5.58386 43.0478 7.31063C43.0478 8.07548 44.2543 8.34763 45.2241 8.4931L45.2427 8.46963Z" fill="white"/>
<path d="M59.0615 14.8371C59.5629 14.0149 59.8011 13.0563 59.7437 12.0921V9.50663C59.7437 6.79916 59.456 4.95977 57.7298 4.95977C55.5349 4.95977 54.8528 6.79916 54.8528 9.50663V12.0921C54.8311 12.8701 54.9718 13.6439 55.2658 14.3632V14.4007C55.3491 14.5647 55.4453 14.7216 55.5535 14.87L55.5906 14.9028H51.2705L51.3448 14.8136C51.8461 13.9914 52.0843 13.0328 52.0269 12.0686V3.30808C52.0269 1.32323 51.2705 0.492688 51.2705 0.492688H52.5512C52.8536 0.490825 53.1533 0.549597 53.4331 0.665605C53.7129 0.781614 53.9671 0.952557 54.1811 1.16855C54.3952 1.38454 54.5647 1.6413 54.68 1.92397C54.7953 2.20664 54.854 2.50962 54.8528 2.81539V5.7997C55.4792 4.88939 56.217 4.18085 57.7112 4.18085C61.3631 4.18085 62.5325 6.63493 62.5325 9.65209V12.0921C62.5108 12.8701 62.6515 13.6439 62.9455 14.3632V14.4007C63.0288 14.5647 63.125 14.7216 63.2331 14.87L63.2656 14.9075H58.9502L59.0244 14.8136L59.0615 14.8371Z" fill="white"/>
<path d="M72.7562 14.9665C75.4894 14.9665 77.3594 12.3669 77.3594 12.3669C76.6216 14.3096 74.4453 15.9472 71.7911 15.9472C68.2273 15.9472 66 13.4556 66 10.4384C66 7.42124 68.2273 5 71.7911 5C74.6124 5 76.8258 6.51093 77.4522 8.98378C77.5169 9.22505 77.5253 9.47821 77.4768 9.72332C77.4282 9.96844 77.324 10.1988 77.1724 10.3962C77.0208 10.5937 76.8259 10.7528 76.6031 10.8611C76.3803 10.9694 76.1356 11.0239 75.8884 11.0202H68.9605C69.3735 12.9816 70.5614 14.9665 72.7748 14.9665H72.7562ZM70.8305 5.91031C68.9744 6.41708 68.6728 8.43947 68.7981 10.2038H74.1205C74.2117 10.1976 74.3006 10.1725 74.3817 10.1299C74.4628 10.0874 74.5343 10.0284 74.5919 9.95656C74.6494 9.88476 74.6916 9.80172 74.7159 9.71265C74.7401 9.62358 74.746 9.53039 74.733 9.43893C74.4082 7.36493 72.9558 5.32846 70.8491 5.91031H70.8305Z" fill="white"/>
<path d="M87.0516 30.6033C87.5556 29.7803 87.7954 28.8199 87.7384 27.8536V24.8177C87.7384 22.129 87.2744 20.7635 86.1375 20.7635C84.2814 20.7635 83.5807 22.0164 83.5297 24.5643V27.8489C83.5076 28.6284 83.6483 29.4039 83.9427 30.1247V30.1622C84.0241 30.3272 84.1204 30.4843 84.2304 30.6315L84.2628 30.669H79.9891L80.0634 30.5799C80.5647 29.7577 80.803 28.799 80.7455 27.8348V24.7661C80.7455 22.0727 80.2583 20.7072 79.1446 20.7072C77.2374 20.7072 76.5182 22.0727 76.5182 24.7661V27.8208C76.4992 28.5985 76.6399 29.3718 76.9312 30.0919V30.1294C77.0164 30.2922 77.1125 30.449 77.2189 30.5986L77.256 30.6315H72.9406L73.0102 30.5423C73.2097 30.2702 73.6969 29.4162 73.6969 27.7973V22.9408C73.7058 22.2219 73.5831 21.5076 73.335 20.8339C73.2429 20.5892 73.1229 20.3562 72.9777 20.1394C73.6998 20.4687 74.4814 20.6437 75.2734 20.6534C76.0655 20.6631 76.8511 20.5073 77.5808 20.1958C78.159 19.9975 78.7661 19.8992 79.3766 19.9048C80.0416 19.8786 80.6996 20.0505 81.2688 20.3992C81.8381 20.7479 82.2934 21.2581 82.5784 21.8662C82.9536 21.268 83.4715 20.7748 84.0845 20.4321C84.6975 20.0893 85.386 19.908 86.0865 19.9048C89.2326 19.9048 90.5643 22.3589 90.5643 25.3808V27.8161C90.5426 28.594 90.6833 29.3679 90.9773 30.0872V30.1247C91.0607 30.2886 91.1569 30.4455 91.265 30.5939L91.3021 30.6315H86.9867L87.0563 30.5376L87.0516 30.6033Z" fill="white"/>
<path d="M104.345 28.1648C104.315 29.0749 104.581 29.9699 105.102 30.7127H103.176C102.42 30.7127 101.557 30.0933 101.557 29.3285C100.912 30.2388 100.165 30.9473 98.6797 30.9473C95.0324 30.9473 93 28.4932 93 25.4714C93 22.4495 95.0324 20.0001 98.6797 20.0001C99.2977 19.9957 99.9122 20.094 100.499 20.2911C101.235 20.6056 102.028 20.7614 102.827 20.7485C103.626 20.7355 104.413 20.5542 105.139 20.216C104.597 21.0493 104.332 22.0355 104.383 23.0314L104.345 28.1648ZM98.6611 30.1121C100.856 30.1121 101.538 27.2029 101.538 25.4526C101.538 22.7639 100.856 20.7838 98.6611 20.7838C96.935 20.7838 95.7842 22.7639 95.7842 25.4761C95.7842 28.1882 96.935 30.1684 98.6611 30.1684V30.1121Z" fill="white"/>
<path d="M65.9976 24.331C68.5544 24.7345 70.856 25.3492 70.856 27.7142C70.856 30.0791 68.2992 30.9706 65.8166 30.9706C64.1832 30.9706 62.1044 30.3888 61.3387 29.1359C61.2569 28.9927 61.214 28.83 61.2144 28.6646C61.2147 28.4991 61.2584 28.3367 61.3408 28.1938C61.4232 28.0509 61.5416 27.9326 61.6838 27.8508C61.8261 27.769 61.9872 27.7268 62.1508 27.7282H63.6774C63.6774 29.5629 64.8654 30.1636 65.8166 30.1636C66.7679 30.1636 68.03 29.5629 68.03 27.7282C68.03 26.9446 66.9674 26.6725 65.6403 26.4754C63.0649 26.0719 61 25.2929 61 23.1626C61 20.9478 63.7842 20.0704 65.747 20C67.2041 20 69.5242 20.6194 70.2434 22.2382C70.2893 22.3778 70.3021 22.5264 70.2807 22.6719C70.2593 22.8174 70.2044 22.9558 70.1204 23.0759C70.0364 23.196 69.9257 23.2945 69.7971 23.3633C69.6686 23.4322 69.5258 23.4695 69.3804 23.4723H67.7423C67.7423 21.3983 66.4848 20.7789 65.7795 20.7789C64.9721 20.7789 63.7842 21.3983 63.7842 23.1251C63.7842 23.8899 64.9906 24.1621 65.9605 24.3075L65.9976 24.331Z" fill="white"/>
<path d="M13.2757 19.7585L8.22 24.8156L9.19043 25.7785L14.2774 20.6901C14.751 20.9988 15.2843 21.2042 15.8426 21.2928V31H17.2043V21.2928C17.7842 21.1934 18.3364 20.9719 18.8243 20.6431L23.8252 25.6454L24.7957 24.6825L19.8026 19.688C20.1792 19.1765 20.4311 18.5841 20.5383 17.958H30V16.5958H20.5148C20.4261 16.0374 20.2208 15.5039 19.9122 15.0302L24.6078 10.3331L23.6452 9.37025L18.9496 14.0673C18.4241 13.6605 17.8054 13.3914 17.1496 13.2844V4H15.8191V13.2609C15.1932 13.3682 14.6009 13.6201 14.0896 13.9968L9.32348 9.22934L8.35304 10.1844L13.1348 14.9675C12.8028 15.4539 12.5811 16.0069 12.4852 16.588H3V17.9501H12.4852C12.5932 18.6096 12.865 19.2314 13.2757 19.7585ZM16.5 14.5605C17.0361 14.5651 17.5588 14.7283 18.0023 15.0296C18.4458 15.3309 18.7902 15.7568 18.9921 16.2535C19.1941 16.7503 19.2445 17.2957 19.1371 17.8211C19.0297 18.3465 18.7692 18.8283 18.3885 19.2059C18.0078 19.5834 17.5239 19.8398 16.9977 19.9427C16.4716 20.0457 15.9268 19.9905 15.4319 19.7842C14.9371 19.578 14.5143 19.2298 14.217 18.7836C13.9196 18.3374 13.7609 17.8131 13.7609 17.2769C13.7609 16.9182 13.8319 16.563 13.9698 16.2319C14.1077 15.9008 14.3099 15.6003 14.5645 15.3477C14.8192 15.0952 15.1214 14.8956 15.4536 14.7605C15.7857 14.6253 16.1414 14.5574 16.5 14.5605Z" fill="#FADCD9" stroke="#FADCD9" stroke-miterlimit="10"/>
</g>
<defs>
<clipPath id="clip0_39_214">
<rect width="119" height="35" fill="white"/>
</clipPath>
</defs>
</svg>
